<svg width="28" height="32" viewBox="0 0 28 32" fill="none" xmlns="http://www.w3.org/2000/svg">
<path d="M8.82191 13.8725H5.75345V17.0436H8.82191V13.8725Z" fill="black"/>
<path d="M22.2466 13.8725H19.1781V17.0436H22.2466V13.8725Z" fill="black"/>
<path d="M17.7717 13.8725H14.7033V17.0436H17.7717V13.8725Z" fill="black"/>
<path d="M8.82191 18.827H5.75345V21.998H8.82191V18.827Z" fill="black"/>
<path d="M17.7717 18.827H14.7033V21.998H17.7717V18.827Z" fill="black"/>
<path d="M13.2969 18.827H10.2284V21.998H13.2969V18.827Z" fill="black"/>
<path d="M22.2466 23.7814H19.1781V26.9525H22.2466V23.7814Z" fill="black"/>
<path d="M17.7717 23.7814H14.7033V26.9525H17.7717V23.7814Z" fill="black"/>
<path d="M13.2969 23.7814H10.2284V26.9525H13.2969V23.7814Z" fill="black"/>
<path d="M25.0528 3.43036H22.5576V5.90253C22.5576 6.82496 21.8221 7.57515 20.9183 7.57515H17.6602C16.7563 7.57515 16.0209 6.82496 16.0209 5.90253V3.43036H11.9747V5.87928C11.9747 6.81455 11.2312 7.57515 10.3173 7.57515H7.09544C6.18149 7.57515 5.43797 6.81455 5.43797 5.87928V3.43036H2.94272C1.32011 3.43036 0 4.78217 0 6.4437V28.8936C0 30.5551 1.32011 31.907 2.94272 31.907H25.0528C26.6779 31.907 28 30.5552 28 28.8936V6.4437C28 4.78223 26.6779 3.43036 25.0528 3.43036ZM25.8905 28.8351C25.8905 29.3685 25.5437 29.7268 25.0274 29.7268H2.97257C2.45635 29.7268 2.10953 29.3685 2.10953 28.8351V11.0982H25.8905V28.8351Z" fill="black"/>
<path d="M7.09641 6.38806H10.3163C10.5889 6.38806 10.8108 6.16041 10.8108 5.88054V1.27709C10.8108 0.572892 10.2517 0 9.56446 0H7.84819C7.161 0 6.60178 0.57283 6.60178 1.27709V5.88054C6.60184 6.16041 6.82364 6.38806 7.09641 6.38806Z" fill="black"/>
<path d="M17.6602 6.38806H20.9183C21.1805 6.38806 21.3937 6.16914 21.3937 5.90036V1.25746C21.3937 0.564168 20.8433 0 20.1664 0H18.4121C17.7354 0 17.1849 0.564168 17.1849 1.25746V5.90036C17.1848 6.16914 17.3981 6.38806 17.6602 6.38806Z" fill="black"/>
</svg>
